<?xml version="1.0" encoding="UTF-8"?>
<svg id="_レイヤー_1" data-name="レイヤー_1" xmlns="http://www.w3.org/2000/svg" version="1.1" viewBox="0 0 200 200">
  <!-- Generator: Adobe Illustrator 29.0.1, SVG Export Plug-In . SVG Version: 2.1.0 Build 192)  -->
  <defs>
    <style>
      .st0 {
        fill: #026636;
      }

      .st1 {
        fill: #24a439;
      }
    </style>
  </defs>
  <g>
    <path class="st0" d="M41.74,83.51c7.55,24.33,15.11,48.66,22.66,72.99,6.8.01,13.6.02,20.41.04l15.28-64.19,15.51,64.16h20.37l21.79-84.61c17.4,22.77,16.32,55,2.62,75.64-17.01,29.83-55.81,42.27-86.49,29.6-12.4-4.51-26.41-16.67-32.89-27.17-10.38-16.61-11.07-42.51.75-66.44Z"/>
    <path class="st0" d="M-3.44,148.26"/>
    <path class="st1" d="M137.48,61.57c-3.91-3.33-7.37-7.09-10.45-11.19-3.26-4.34-4.21-8.3-5.25-13.39-.12-.36-.18-.73-.2-1.09-.03-.25-.04-.5-.03-.74,0-.32.02-.64.1-.92-40.13-11.59-75.88,13.65-91.39,37.96,10.17.02,20.34.03,30.52.05l14.93,67.6,16.51-67.6h16.79l16.36,67.6,14.93-67.6c5.92,0,11.84-.02,17.77-.03-.11-.19-.23-.39-.35-.58-7.49-.9-14.66-5.35-20.22-10.07Z"/>
  </g>
  <path class="st1" d="M169.21,56.13c-2.83-1.17-17.72-9.28-20.83-13.82-1.67-2.03-4.41-6.04-5.53-12.58,4.56,7.5,14.59,15.07,25.63,16.24-.79-9.88-1.92-11.26-10.51-23.14-6.26-8.45-8.6-11.25-15.57-21.54-1.68,1.2-15.67,11.45-15.82,27.79-.15,16.44,13.76,32.35,33.86,35.66,4.29,4.32,11.27,12.51,15.47,24.75,17.73,54.77-32.28,114.61-93.89,100.28-29.38-6.53-52.45-29.6-58.98-58.98C9.03,70.92,65.85,20.03,121.75,36.45h0c-.37-1.66-.94-3.47-.47-5.15-.34-2.02-.3-4.1.17-6.03C59.86,9.38-.76,65.38,14.47,130.81c7.25,32.64,32.89,58.27,65.53,65.53,68.14,15.76,123.58-49.75,104.51-110.78-3.73-19.67-10.01-26.74-15.3-29.43Z"/>
</svg>